# xmcd CD database file
#
# Track frame offsets:
#	150
#	13825
#	29927
#	45702
#	66035
#	78022
#	93997
#	112972
#	126812
#	146955
#	169312
#
# Disc length: 2538 seconds
#
# Revision: 2
# Processed by: cddbd v1.5.1PL0 Copyright (c) Steve Scherf et al.
# Submitted via: CDex 1.51
#
DISCID=9709e80b
DTITLE=Silje - Cow On The Highway
DYEAR=1993
DGENRE=Pop
TTITLE0=Cow On The Highway
TTITLE1=Break All The Rules
TTITLE2=Crazy Ocean
TTITLE3=So Many Roads To Sorrow
TTITLE4=Call Me From New York
TTITLE5=All Over Town
TTITLE6=Be Good Or Be Gone
TTITLE7=Sorry
TTITLE8=Care
TTITLE9=Someone's Got To Hold Her
TTITLE10=On And On
EXTD=YEAR: 1993
EXTT0=
EXTT1=
EXTT2=
EXTT3=
EXTT4=
EXTT5=
EXTT6=
EXTT7=
EXTT8=
EXTT9=
EXTT10=
PLAYORDER=
